<?xml version="1.0" encoding="UTF-8"?>
<svg xmlns="http://www.w3.org/2000/svg" version="1.1" viewBox="0 0 20 37">
  <defs>
    <style>
      .cls-1 {
        fill: #0b9b9b;
      }
    </style>
  </defs>
  <!-- Generator: Adobe Illustrator 28.7.1, SVG Export Plug-In . SVG Version: 1.2.0 Build 142)  -->
  <g>
    <g id="_레이어_1" data-name="레이어_1">
      <g id="_레이어_1-2" data-name="_레이어_1">
        <path class="cls-1" d="M19.2,16.5L4.4.8c-.2-.3-.5-.5-.8-.6C3.3,0,2.9,0,2.6,0S1.9,0,1.6.2c-.3,0-.6.3-.8.6C.3,1.3,0,2,0,2.8s.3,1.4.8,2l12.9,13.8L.8,32.3c-.5.5-.8,1.2-.8,2s.3,1.4.8,2c.2.3.5.5.8.6s.7.2,1,.2.7,0,1-.2c.3,0,.6-.4.8-.6l14.7-15.6c.3-.3.5-.6.6-.9.1-.4.2-.7.2-1.1s0-.8-.2-1.1c-.1-.4-.4-.7-.6-.9v-.2Z"/>
      </g>
    </g>
  </g>
</svg>