<svg width="20" height="37" viewBox="0 0 20 37" fill="none" xmlns="http://www.w3.org/2000/svg">
<path d="M0.836981 16.4595L15.5522 0.818847C15.7939 0.559382 16.0814 0.35344 16.3982 0.212899C16.7151 0.0723581 17.0549 0 17.3981 0C17.7413 0 18.0811 0.0723581 18.3979 0.212899C18.7147 0.35344 19.0023 0.559382 19.244 0.818847C19.7282 1.33751 20 2.03913 20 2.77047C20 3.5018 19.7282 4.20343 19.244 4.72209L6.37468 18.5634L19.244 32.2663C19.7282 32.785 20 33.4866 20 34.2179C20 34.9492 19.7282 35.6509 19.244 36.1695C19.0032 36.4311 18.7161 36.6392 18.3992 36.7817C18.0823 36.9243 17.7421 36.9985 17.3981 37C17.0541 36.9985 16.7138 36.9243 16.397 36.7817C16.0801 36.6392 15.793 36.4311 15.5522 36.1695L0.836981 20.5289C0.573084 20.2696 0.362473 19.955 0.218422 19.6048C0.0743694 19.2546 0 18.8765 0 18.4942C0 18.1119 0.0743694 17.7337 0.218422 17.3835C0.362473 17.0334 0.573084 16.7187 0.836981 16.4595Z" fill="#2395FF"/>
</svg>
