<svg width="20" height="37" viewBox="0 0 20 37" fill="none" xmlns="http://www.w3.org/2000/svg">
<path d="M19.163 16.4595L4.44782 0.818847C4.20613 0.559382 3.91858 0.35344 3.60176 0.212899C3.28495 0.0723581 2.94513 0 2.60192 0C2.25871 0 1.91889 0.0723581 1.60207 0.212899C1.28526 0.35344 0.99771 0.559382 0.756019 0.818847C0.271793 1.33751 0 2.03913 0 2.77047C0 3.5018 0.271793 4.20343 0.756019 4.72209L13.6253 18.5634L0.756019 32.2663C0.271793 32.785 0 33.4866 0 34.2179C0 34.9492 0.271793 35.6509 0.756019 36.1695C0.996804 36.4311 1.28395 36.6392 1.6008 36.7817C1.91766 36.9243 2.25794 36.9985 2.60192 37C2.9459 36.9985 3.28618 36.9243 3.60303 36.7817C3.91989 36.6392 4.20703 36.4311 4.44782 36.1695L19.163 20.5289C19.4269 20.2696 19.6375 19.955 19.7816 19.6048C19.9256 19.2546 20 18.8765 20 18.4942C20 18.1119 19.9256 17.7337 19.7816 17.3835C19.6375 17.0334 19.4269 16.7187 19.163 16.4595Z" fill="#2395FF"/>
</svg>
